<?xml version="1.0" standalone="no"?>
<!DOCTYPE svg PUBLIC "-//W3C//DTD SVG 20010904//EN"
 "http://www.w3.org/TR/2001/REC-SVG-20010904/DTD/svg10.dtd">
<svg version="1.0" xmlns="http://www.w3.org/2000/svg"
 width="50.000000pt" height="50.000000pt" viewBox="0 0 500.000000 500.000000"
 preserveAspectRatio="xMidYMid meet">

<g transform="translate(0.000000,500.000000) scale(0.100000,-0.100000)"
fill="#000000" stroke="none">
<path d="M2285 4354 c-372 -54 -691 -189 -960 -405 -103 -83 -270 -261 -347
-369 -143 -201 -257 -472 -310 -730 -20 -101 -23 -144 -23 -350 0 -208 3 -248
24 -350 116 -566 469 -1041 961 -1294 546 -281 1151 -289 1692 -21 310 154
580 398 757 682 289 466 358 1051 185 1572 -170 512 -562 932 -1059 1134 -246
100 -385 128 -670 132 -121 2 -233 1 -250 -1z m445 -118 c478 -64 912 -326
1195 -721 79 -109 195 -338 234 -460 121 -378 118 -747 -10 -1140 -11 -33 -51
-124 -90 -202 l-70 -143 -82 -25 c-124 -37 -239 -62 -372 -81 -170 -23 -508
-15 -650 16 -180 38 -389 118 -515 196 l-45 28 33 -42 c133 -167 351 -285 607
-328 205 -34 512 -17 775 45 47 11 86 18 88 16 8 -8 -185 -69 -288 -91 -161
-35 -420 -44 -575 -19 -293 46 -494 142 -660 316 -73 77 -94 107 -139 202 -30
62 -61 144 -70 182 -66 303 16 631 208 831 l71 74 145 -126 c170 -147 217
-181 365 -259 183 -97 248 -137 299 -184 55 -51 50 -32 -11 50 -48 64 -110
109 -233 170 -126 61 -237 137 -345 234 -350 313 -765 538 -1061 575 -100 13
-165 34 -189 60 -15 16 -8 16 59 -6 89 -28 149 -31 391 -20 189 9 276 0 381
-40 l41 -16 6 -70 c9 -101 50 -183 134 -267 38 -37 97 -84 133 -104 105 -58
97 -64 92 65 -5 138 6 186 57 240 l37 40 60 -30 c88 -44 249 -168 323 -247
149 -160 269 -403 355 -718 l33 -121 17 50 c65 198 72 490 15 694 -55 201
-231 456 -433 630 -42 36 -79 76 -82 89 -5 17 7 51 45 125 83 160 67 191 -94
182 -104 -6 -216 -32 -329 -77 l-79 -31 -91 22 c-186 46 -410 34 -588 -30
-111 -40 -175 -86 -261 -185 -76 -88 -113 -112 -184 -121 -27 -4 -54 -13 -60
-22 -28 -35 -8 -90 37 -104 10 -3 4 -11 -20 -23 -19 -9 -64 -38 -100 -63 -186
-130 -325 -287 -438 -497 l-43 -80 6 59 c23 236 130 520 281 747 260 390 714
680 1175 748 40 6 85 13 99 15 64 9 316 4 410 -8z m-830 -650 c28 -35 -11 -93
-47 -70 -36 22 -23 84 17 84 10 0 23 -7 30 -14z m113 -442 c52 -26 217 -132
217 -139 0 -2 -33 -21 -72 -42 -94 -48 -245 -197 -306 -300 -101 -171 -137
-309 -136 -513 1 -169 19 -253 84 -389 68 -140 181 -279 297 -364 61 -43 45
-46 -24 -4 -227 139 -386 376 -439 653 -22 117 -15 306 16 414 47 168 154 334
282 441 l62 52 -69 -8 c-379 -40 -659 -313 -770 -750 -60 -234 -58 -499 4
-720 11 -38 18 -71 16 -73 -5 -5 -61 138 -89 226 -99 315 -68 682 80 950 116
211 290 378 509 490 82 41 241 101 273 102 7 0 36 -12 65 -26z"/>
<path d="M3466 2075 c4 -11 22 -60 41 -109 45 -116 61 -191 46 -214 -13 -20
-12 -20 -138 13 -55 14 -156 31 -225 37 -121 11 -129 11 -250 -16 -148 -33
-162 -39 -131 -55 17 -9 48 -10 128 -2 220 22 308 15 522 -45 69 -19 136 -34
150 -32 25 3 26 6 26 63 0 52 -7 74 -52 165 -48 97 -134 240 -117 195z"/>
</g>
</svg>
